<mxfile host="app.diagrams.net" modified="2023-12-25T00:05:40.797Z" agent="Mozilla/5.0 (Windows NT 10.0; Win64; x64) AppleWebKit/537.36 (KHTML, like Gecko) Chrome/120.0.0.0 Safari/537.36" etag="YJrYby5Ag5kqt7RSk2i3" version="22.1.11" type="device">
  <diagram name="Trang-1" id="mAiNADUd7Cy0c0CvxYBJ">
    <mxGraphModel dx="819" dy="426" grid="1" gridSize="10" guides="1" tooltips="1" connect="1" arrows="1" fold="1" page="1" pageScale="1" pageWidth="850" pageHeight="1100" math="0" shadow="0">
      <root>
        <mxCell id="0" />
        <mxCell id="1" parent="0" />
        <mxCell id="UuDM3Q7bagGQSsvPGnsL-6" style="edgeStyle=orthogonalEdgeStyle;rounded=0;orthogonalLoop=1;jettySize=auto;html=1;" edge="1" parent="1" source="UuDM3Q7bagGQSsvPGnsL-1" target="UuDM3Q7bagGQSsvPGnsL-3">
          <mxGeometry relative="1" as="geometry">
            <Array as="points">
              <mxPoint x="380" y="130" />
            </Array>
          </mxGeometry>
        </mxCell>
        <mxCell id="UuDM3Q7bagGQSsvPGnsL-1" value="Actor" style="shape=umlActor;verticalLabelPosition=bottom;verticalAlign=top;html=1;" vertex="1" parent="1">
          <mxGeometry x="410" y="100" width="30" height="60" as="geometry" />
        </mxCell>
        <mxCell id="UuDM3Q7bagGQSsvPGnsL-7" style="edgeStyle=orthogonalEdgeStyle;rounded=0;orthogonalLoop=1;jettySize=auto;html=1;" edge="1" parent="1" source="UuDM3Q7bagGQSsvPGnsL-3" target="UuDM3Q7bagGQSsvPGnsL-4">
          <mxGeometry relative="1" as="geometry">
            <Array as="points">
              <mxPoint x="290" y="310" />
            </Array>
          </mxGeometry>
        </mxCell>
        <mxCell id="UuDM3Q7bagGQSsvPGnsL-3" value="интерфейс" style="rounded=0;whiteSpace=wrap;html=1;" vertex="1" parent="1">
          <mxGeometry x="365" y="280" width="120" height="60" as="geometry" />
        </mxCell>
        <mxCell id="UuDM3Q7bagGQSsvPGnsL-8" style="edgeStyle=orthogonalEdgeStyle;rounded=0;orthogonalLoop=1;jettySize=auto;html=1;" edge="1" parent="1" source="UuDM3Q7bagGQSsvPGnsL-4" target="UuDM3Q7bagGQSsvPGnsL-5">
          <mxGeometry relative="1" as="geometry" />
        </mxCell>
        <mxCell id="UuDM3Q7bagGQSsvPGnsL-4" value="классификация данных" style="rounded=0;whiteSpace=wrap;html=1;" vertex="1" parent="1">
          <mxGeometry x="230" y="400" width="120" height="60" as="geometry" />
        </mxCell>
        <mxCell id="UuDM3Q7bagGQSsvPGnsL-9" style="edgeStyle=orthogonalEdgeStyle;rounded=0;orthogonalLoop=1;jettySize=auto;html=1;entryX=1;entryY=0.5;entryDx=0;entryDy=0;" edge="1" parent="1" source="UuDM3Q7bagGQSsvPGnsL-5" target="UuDM3Q7bagGQSsvPGnsL-3">
          <mxGeometry relative="1" as="geometry" />
        </mxCell>
        <mxCell id="UuDM3Q7bagGQSsvPGnsL-5" value="обработка данных" style="rounded=0;whiteSpace=wrap;html=1;" vertex="1" parent="1">
          <mxGeometry x="480" y="400" width="120" height="60" as="geometry" />
        </mxCell>
        <mxCell id="UuDM3Q7bagGQSsvPGnsL-10" style="edgeStyle=orthogonalEdgeStyle;rounded=0;orthogonalLoop=1;jettySize=auto;html=1;" edge="1" parent="1" target="UuDM3Q7bagGQSsvPGnsL-1">
          <mxGeometry relative="1" as="geometry">
            <mxPoint x="470" y="280" as="sourcePoint" />
            <mxPoint x="476.99" y="148" as="targetPoint" />
            <Array as="points">
              <mxPoint x="477" y="280" />
              <mxPoint x="477" y="130" />
            </Array>
          </mxGeometry>
        </mxCell>
        <mxCell id="UuDM3Q7bagGQSsvPGnsL-11" value="Менеджер" style="text;html=1;align=center;verticalAlign=middle;resizable=0;points=[];autosize=1;strokeColor=none;fillColor=none;" vertex="1" parent="1">
          <mxGeometry x="385" y="70" width="80" height="30" as="geometry" />
        </mxCell>
        <mxCell id="UuDM3Q7bagGQSsvPGnsL-12" value="входные данные" style="text;html=1;align=center;verticalAlign=middle;resizable=0;points=[];autosize=1;strokeColor=none;fillColor=none;" vertex="1" parent="1">
          <mxGeometry x="260" y="190" width="120" height="30" as="geometry" />
        </mxCell>
        <mxCell id="UuDM3Q7bagGQSsvPGnsL-13" value="выходные данные" style="text;html=1;align=center;verticalAlign=middle;resizable=0;points=[];autosize=1;strokeColor=none;fillColor=none;" vertex="1" parent="1">
          <mxGeometry x="530" y="330" width="130" height="30" as="geometry" />
        </mxCell>
        <mxCell id="UuDM3Q7bagGQSsvPGnsL-14" value="показать результаты" style="text;html=1;align=center;verticalAlign=middle;resizable=0;points=[];autosize=1;strokeColor=none;fillColor=none;" vertex="1" parent="1">
          <mxGeometry x="480" y="190" width="140" height="30" as="geometry" />
        </mxCell>
        <mxCell id="UuDM3Q7bagGQSsvPGnsL-15" value="Несекретные данные" style="text;html=1;align=center;verticalAlign=middle;resizable=0;points=[];autosize=1;strokeColor=none;fillColor=none;" vertex="1" parent="1">
          <mxGeometry x="150" y="340" width="140" height="30" as="geometry" />
        </mxCell>
        <mxCell id="UuDM3Q7bagGQSsvPGnsL-16" value="данные" style="text;html=1;align=center;verticalAlign=middle;resizable=0;points=[];autosize=1;strokeColor=none;fillColor=none;" vertex="1" parent="1">
          <mxGeometry x="375" y="398" width="70" height="30" as="geometry" />
        </mxCell>
      </root>
    </mxGraphModel>
  </diagram>
</mxfile>
